# Blender v3.2.0 OBJ File: 'budka.blend'
# www.blender.org
mtllib budka.mtl
o Cube
v 1.333954 0.291412 -1.333954
v 1.528046 -0.291412 -1.528046
v 1.333954 0.291412 1.333954
v 1.528046 -0.291412 1.528046
v -1.333954 0.291412 -1.333954
v -1.528046 -0.291412 -1.528046
v -1.333954 0.291412 1.333954
v -1.528046 -0.291412 1.528046
vt 0.172216 0.706706
vt 0.293581 0.706706
vt 0.293581 0.828071
vt 0.172216 0.828071
vt 0.050851 0.828071
vt 0.172216 0.949436
vt 0.050851 0.949436
vt 0.050851 0.463976
vt 0.172216 0.463976
vt 0.172216 0.585341
vt 0.050851 0.585341
vt 0.050851 0.706706
vn 0.0000 1.0000 0.0000
vn 0.0000 0.3160 0.9488
vn -0.9488 0.3160 0.0000
vn 0.9488 0.3160 0.0000
vn 0.0000 0.3160 -0.9488
usemtl budka
s off
f 1/1/1 5/2/1 7/3/1 3/4/1
f 4/5/2 3/4/2 7/6/2 8/7/2
f 8/8/3 7/9/3 5/10/3 6/11/3
f 2/12/4 1/1/4 3/4/4 4/5/4
f 6/11/5 5/10/5 1/1/5 2/12/5
o Cube.001
v -1.000000 0.000000 1.000000
v -1.000000 4.937673 1.000000
v -1.000000 0.000000 -1.000000
v -1.000000 4.937673 -1.000000
v 1.000000 0.000000 1.000000
v 1.000000 4.937673 1.000000
v 1.000000 0.000000 -1.000000
v 1.000000 4.937673 -1.000000
v -1.000000 0.000000 -0.718310
v -1.000000 4.937673 -0.718310
v 1.000000 0.000000 -0.718310
v 1.000000 4.937673 -0.718310
v -1.000000 0.000000 0.718310
v 1.000000 4.937673 0.718310
v -1.000000 4.937673 0.718310
v 1.000000 0.000000 0.718310
v -0.380181 0.000000 0.718310
v -0.380181 0.000000 -0.718310
v -0.380181 4.937673 -0.718310
v -0.380181 4.937673 0.718310
vt 0.615237 0.301214
vt 0.615237 0.627961
vt 0.596596 0.627961
vt 0.596596 0.301214
vt 0.464248 0.301214
vt 0.464248 0.627961
vt 0.331899 0.627961
vt 0.331899 0.301214
vt 0.933986 0.301214
vt 0.933986 0.627961
vt 0.915345 0.627961
vt 0.915345 0.301214
vt 0.596596 0.301214
vt 0.596596 0.627961
vt 0.464248 0.627961
vt 0.464248 0.301214
vt 0.646913 0.627961
vt 0.646913 0.760309
vt 0.628272 0.760309
vt 0.628272 0.627961
vt 0.441872 0.627961
vt 0.441872 0.760309
vt 0.423232 0.760309
vt 0.423232 0.627961
vt 0.952626 0.301214
vt 0.952626 0.627961
vt 0.933986 0.627961
vt 0.933986 0.301214
vt 0.710304 0.301214
vt 0.710304 0.627961
vt 0.728945 0.301214
vt 0.728945 0.627961
vt 0.441872 0.719293
vt 0.536940 0.719293
vt 0.536940 0.760309
vt 0.824012 0.301214
vt 0.824012 0.627961
vt 0.728945 0.627961
vt 0.728945 0.301214
vt 0.536940 0.723028
vt 0.536940 0.627961
vt 0.628272 0.627961
vt 0.628272 0.723028
vt 0.824012 0.627961
vt 0.824012 0.301214
vt 0.915345 0.301214
vt 0.915345 0.627961
vt 0.423232 0.627961
vt 0.423232 0.954708
vt 0.331899 0.954708
vt 0.331899 0.627961
vn -1.0000 0.0000 0.0000
vn 0.0000 0.0000 -1.0000
vn 1.0000 0.0000 0.0000
vn 0.0000 0.0000 1.0000
vn 0.0000 1.0000 0.0000
usemtl budka
s off
f 17/13/6 18/14/6 12/15/6 11/16/6
f 11/17/7 12/18/7 16/19/7 15/20/7
f 24/21/8 22/22/8 14/23/8 13/24/8
f 13/25/9 14/26/9 10/27/9 9/28/9
f 16/29/10 12/30/10 18/31/10 20/32/10
f 22/33/10 23/34/10 10/35/10 14/36/10
f 15/37/8 16/38/8 20/39/8 19/40/8
f 21/41/6 23/42/6 18/14/6 17/13/6
f 9/43/6 10/44/6 23/42/6 21/41/6
f 23/34/10 22/33/10 28/45/10 27/46/10 18/47/10
f 26/48/8 27/49/8 28/50/8 25/51/8
f 24/52/10 19/53/10 26/54/10 25/55/10
f 22/56/7 24/57/7 25/58/7 28/59/7
f 19/60/9 20/61/9 27/62/9 26/63/9
o Cube.002
v -1.382063 4.876335 1.382063
v -1.382063 5.093865 1.382063
v -1.382063 4.876335 -1.382063
v -1.382063 5.093865 -1.382063
v 1.382063 4.876335 1.382063
v 1.382063 5.093865 1.382063
v 1.382063 4.876335 -1.382063
v 1.382063 5.093865 -1.382063
vt 0.112354 0.091221
vt 0.178940 0.091221
vt 0.178940 0.157807
vt 0.112354 0.157807
vt 0.178940 0.224392
vt 0.112354 0.224392
vt 0.178940 0.290978
vt 0.112354 0.290978
vt 0.178940 0.357564
vt 0.112354 0.357564
vt 0.045769 0.224392
vt 0.045769 0.290978
vt 0.245526 0.224392
vt 0.245526 0.290978
vn -1.0000 0.0000 0.0000
vn 0.0000 0.0000 -1.0000
vn 1.0000 0.0000 0.0000
vn 0.0000 0.0000 1.0000
vn 0.0000 -1.0000 0.0000
vn 0.0000 1.0000 0.0000
usemtl budka
s off
f 29/64/11 30/65/11 32/66/11 31/67/11
f 31/67/12 32/66/12 36/68/12 35/69/12
f 35/69/13 36/68/13 34/70/13 33/71/13
f 33/71/14 34/70/14 30/72/14 29/73/14
f 31/74/15 35/69/15 33/71/15 29/75/15
f 36/68/16 32/76/16 30/77/16 34/70/16
o Cube.003
v -1.330459 5.079214 1.346687
v -1.330459 6.175882 1.346687
v -1.330459 5.079214 -1.346687
v -1.330459 6.175882 -1.346687
v 1.330459 5.079214 1.346687
v 1.330459 6.175882 1.346687
v 1.330459 5.079214 -1.346687
v 1.330459 6.175882 -1.346687
v -1.330459 5.079214 -0.967338
v -1.330459 6.175882 -0.967338
v 1.330459 5.079214 -0.967338
v 1.330459 6.175882 -0.967338
v -1.330459 5.079214 0.967338
v 1.330459 6.175882 0.967338
v -1.330459 6.175882 0.967338
v 1.330459 5.079214 0.967338
v 1.260363 5.079214 0.967338
v 1.260363 5.079214 -0.967338
v -0.911951 6.175882 -0.967338
v -0.911951 6.175882 0.967338
vt 0.565510 0.166234
vt 0.510577 0.166234
vt 0.510577 0.152124
vt 0.565510 0.152124
vt 0.510577 0.051942
vt 0.565510 0.051942
vt 0.438616 0.051942
vt 0.438616 0.082571
vt 0.424506 0.082571
vt 0.424506 0.051942
vt 0.620443 0.152124
vt 0.565510 0.152124
vt 0.565510 0.051942
vt 0.620443 0.051942
vt 0.634553 0.082571
vt 0.634553 0.165735
vt 0.620443 0.165735
vt 0.620443 0.082571
vt 0.438616 0.165735
vt 0.424506 0.165735
vt 0.634553 0.051942
vt 0.620443 0.051942
vt 0.565510 0.238195
vt 0.510577 0.238195
vt 0.565510 0.252305
vt 0.510577 0.252305
vt 0.438616 0.152655
vt 0.510577 0.152655
vt 0.510577 0.165735
vt 0.510577 0.054133
vt 0.438616 0.054133
vt 0.510577 0.051942
vt 0.620443 0.236549
vt 0.565510 0.236549
vt 0.565510 0.233910
vt 0.620443 0.152124
vt 0.424506 0.165735
vt 0.479439 0.165735
vt 0.479439 0.250160
vt 0.424506 0.168374
vn -1.0000 0.0000 0.0000
vn 0.0000 0.0000 -1.0000
vn 1.0000 0.0000 0.0000
vn 0.0000 0.0000 1.0000
vn 0.0000 1.0000 0.0000
vn 0.4507 0.8927 0.0000
usemtl budka
s off
f 45/78/17 46/79/17 40/80/17 39/81/17
f 39/81/18 40/80/18 44/82/18 43/83/18
f 52/84/19 50/85/19 42/86/19 41/87/19
f 41/88/20 42/89/20 38/90/20 37/91/20
f 44/92/21 40/93/21 46/94/21 48/95/21
f 50/85/21 51/96/21 38/97/21 42/86/21
f 43/98/19 44/92/19 48/95/19 47/99/19
f 49/100/17 51/101/17 46/79/17 45/78/17
f 37/102/17 38/103/17 51/101/17 49/100/17
f 51/96/21 50/85/21 56/104/21 55/105/21 46/106/21
f 54/107/22 55/105/22 56/104/22 53/108/22
f 52/84/21 47/109/21 54/107/21 53/108/21
f 50/110/18 52/111/18 53/112/18 56/113/18
f 47/114/20 48/115/20 55/116/20 54/117/20
o Cube.004
v -1.138519 2.609604 0.117576
v -1.138519 2.844755 0.117576
v -1.138519 2.609604 -0.117576
v -1.138519 2.844755 -0.117576
v -0.903367 2.609604 0.117576
v -0.903367 2.844755 0.117576
v -0.903367 2.609604 -0.117576
v -0.903367 2.844755 -0.117576
v -1.138519 2.844755 -0.450487
v -1.138519 2.609604 -0.450487
v -0.903367 2.609604 -0.450487
v -0.903367 2.844755 -0.450487
v -1.138519 2.609604 0.450487
v -1.138519 2.844755 0.450487
v -0.903367 2.844755 0.450487
v -0.903367 2.609604 0.450487
v -1.138519 3.011211 0.117576
v -1.138519 3.011211 -0.117576
v -0.903367 3.011211 -0.117576
v -0.903367 3.011211 0.117576
v -1.138519 1.940361 -0.117576
v -1.138519 1.940361 0.117576
v -0.903367 1.940361 -0.117576
v -0.903367 1.940361 0.117576
vt 0.762126 0.817027
vt 0.762126 0.851846
vt 0.727307 0.851846
vt 0.727307 0.817027
vt 0.846240 0.865815
vt 0.881059 0.865815
vt 0.881059 0.915109
vt 0.846240 0.915109
vt 0.846239 0.916122
vt 0.811420 0.916122
vt 0.811420 0.817027
vt 0.846239 0.817027
vt 0.712832 0.946131
vt 0.678013 0.946131
vt 0.678013 0.911312
vt 0.712832 0.911312
vt 0.881059 0.816520
vt 0.846240 0.816520
vt 0.846240 0.767226
vt 0.881059 0.767226
vt 0.881059 0.865815
vt 0.846240 0.865815
vt 0.846240 0.816520
vt 0.881059 0.816520
vt 0.678013 0.851846
vt 0.678013 0.817027
vt 0.782470 0.911312
vt 0.747651 0.911312
vt 0.747651 0.876493
vt 0.782470 0.876493
vt 0.811420 0.817027
vt 0.811420 0.851846
vt 0.846240 0.717932
vt 0.881059 0.717932
vt 0.881059 0.767226
vt 0.846240 0.767226
vt 0.712832 0.876493
vt 0.712832 0.911312
vt 0.678013 0.911312
vt 0.678013 0.876493
vt 0.762126 0.876493
vt 0.727307 0.876493
vt 0.807117 0.876493
vt 0.807117 0.911312
vt 0.782470 0.911312
vt 0.782470 0.876493
vt 0.905706 0.717932
vt 0.905706 0.752751
vt 0.881059 0.752751
vt 0.881059 0.717932
vt 0.747651 0.876493
vt 0.747651 0.911312
vt 0.712832 0.911312
vt 0.712832 0.876493
vt 0.727307 0.717932
vt 0.762126 0.717932
vt 0.846240 0.817027
vt 0.811420 0.817027
vt 0.811420 0.717932
vt 0.846240 0.717932
vn -1.0000 0.0000 0.0000
vn 0.0000 1.0000 0.0000
vn 0.0000 0.0000 -1.0000
vn 0.0000 -1.0000 0.0000
vn 0.0000 0.0000 1.0000
usemtl budka
s off
f 57/118/23 58/119/23 60/120/23 59/121/23
f 62/122/24 58/123/24 70/124/24 71/125/24
f 59/126/25 63/127/25 79/128/25 77/129/25
f 66/130/25 65/131/25 68/132/25 67/133/25
f 63/134/26 59/135/26 66/136/26 67/137/26
f 60/138/24 64/139/24 68/140/24 65/141/24
f 59/121/23 60/120/23 65/142/23 66/143/23
f 72/144/27 71/145/27 70/146/27 69/147/27
f 58/119/23 57/118/23 69/148/23 70/149/23
f 57/150/26 61/151/26 72/152/26 69/153/26
f 75/154/24 74/155/24 73/156/24 76/157/24
f 60/120/23 58/119/23 73/158/23 74/159/23
f 58/160/27 62/161/27 76/162/27 73/163/27
f 64/164/25 60/165/25 74/166/25 75/167/25
f 77/168/26 79/169/26 80/170/26 78/171/26
f 57/118/23 59/121/23 77/172/23 78/173/23
f 61/174/27 57/175/27 78/176/27 80/177/27
